<svg width="17" height="27" viewBox="0 0 17 27" fill="none" xmlns="http://www.w3.org/2000/svg">
<path d="M8.14396 23.0216L8.51318 23.4236L8.88134 23.0207L13.4554 18.0142L12.7171 17.3397L8.51122 21.9432L4.28381 17.3408L3.54733 18.0172L8.14396 23.0216ZM16.5 6.32813L16.5 20.6719C16.5 23.899 13.9536 26.5 10.8554 26.5L6.14458 26.5C3.04637 26.5 0.499999 23.899 0.499999 20.6719L0.5 6.32813C0.5 3.10097 3.04637 0.5 6.14458 0.5L10.8554 0.5C13.9536 0.5 16.5 3.10097 16.5 6.32813Z" stroke="white"/>
<circle cx="8.5" cy="8.5" r="1.5" fill="white"/>
<circle cx="8.5" cy="12.5" r="1.5" fill="white"/>
</svg>
