<svg width="100" height="100" fill="none" xmlns="http://www.w3.org/2000/svg"><g clip-path="url(#a)" fill="#000"><path d="M16.604 17.647a8.824 8.824 0 1 0 0-17.647 8.824 8.824 0 0 0 0 17.647ZM83.397 17.647a8.824 8.824 0 1 0 0-17.647 8.824 8.824 0 0 0 0 17.647ZM30.266 28.368c0-3.458-1.288-6.613-3.406-9.02a14.669 14.669 0 0 1-20.513 0 13.607 13.607 0 0 0-3.406 9.02v9.867h27.325v-9.867ZM63.662 28.368c0-3.458-1.287-6.613-3.405-9.02a14.669 14.669 0 0 1-20.514 0 13.606 13.606 0 0 0-3.405 9.02v9.867h27.324v-9.867ZM93.653 19.348a14.669 14.669 0 0 1-20.513 0 13.607 13.607 0 0 0-3.406 9.02v9.867H97.06v-9.867c0-3.458-1.288-6.613-3.406-9.02ZM50 17.647A8.824 8.824 0 1 0 50 0a8.824 8.824 0 0 0 0 17.647ZM78.682 46.408a29.56 29.56 0 0 1 .73 6.533c0 16.218-13.194 29.412-29.412 29.412-16.218 0-29.412-13.194-29.412-29.412 0-2.201.246-4.399.73-6.533l.52-2.29H2.94v17.647h6.833a41.272 41.272 0 0 0 5.546 13.378l-4.774 4.773 12.479 12.479 4.774-4.774a41.277 41.277 0 0 0 13.378 5.547V100h17.647v-6.833a41.278 41.278 0 0 0 13.378-5.546l4.773 4.774 12.48-12.479-4.775-4.774a41.279 41.279 0 0 0 5.546-13.377h6.833V44.117H78.162l.52 2.291Z"/></g><defs><clipPath id="a"><path fill="#fff" d="M0 0h100v100H0z"/></clipPath></defs></svg>