<svg width="100" height="100" fill="none" xmlns="http://www.w3.org/2000/svg"><g clip-path="url(#a)" fill="#000"><path d="M50 70.502c-6.463 0-11.72-5.258-11.72-11.722 0-6.463 5.257-11.72 11.72-11.72 6.463 0 11.721 5.257 11.721 11.72 0 6.463-5.258 11.722-11.72 11.722Z"/><path d="M64.651 100H35.74V82.223H14.836V52.92h11.722v17.582h46.884V52.92h11.722v29.303H64.65V100ZM64.226 43.784 50 36.304l-14.226 7.48 2.717-15.841-11.51-11.22 15.906-2.31L50 0l7.113 14.413 15.906 2.31-11.51 11.22 2.717 15.84ZM6.046 23.617h11.72v5.86H6.047v-5.86ZM82.233 23.617h11.722v5.86H82.233v-5.86ZM10.469 45.985l10.15-5.86 2.93 5.075-10.15 5.86-2.93-5.075ZM76.448 7.892l10.15-5.86 2.93 5.075-10.15 5.86-2.93-5.075ZM10.47 7.108l2.93-5.075 10.15 5.86-2.93 5.076-10.15-5.86ZM76.448 45.203l2.93-5.075 10.151 5.86-2.93 5.076-10.15-5.86Z"/></g><defs><clipPath id="a"><path fill="#fff" d="M0 0h100v100H0z"/></clipPath></defs></svg>