<svg width="100" height="100" fill="none" xmlns="http://www.w3.org/2000/svg"><path d="M47.266 0v29.297h29.297v15.861l15.861-15.861H100V0H47.266Zm17.578 17.578h-5.86v-5.86h5.86v5.86Zm11.719 0h-5.86v-5.86h5.86v5.86Zm11.718 0h-5.86v-5.86h5.86v5.86ZM11.719 53.125h23.437v29.297H11.72V53.125Z" fill="#000"/><path d="M49.805 53.125h-8.79v29.297h8.79c8.076 0 14.648 6.572 14.648 14.648h5.86V38.477h-5.86c0 8.076-6.572 14.648-14.648 14.648ZM87.89 64.844H100v5.86H87.89v-5.86ZM81.513 55.349l8.287-8.287 4.143 4.142-8.287 8.287-4.143-4.142ZM81.51 80.203l4.142-4.143 8.287 8.287-4.142 4.143-8.287-8.287ZM14.648 100h11.72l3.906-11.719h-11.72L14.649 100ZM0 61.914h5.86v11.719H0V61.914ZM76.172 61.914v11.719c3.23 0 5.86-2.63 5.86-5.86 0-3.23-2.63-5.859-5.86-5.859Z" fill="#000"/></svg>