<svg width="149" height="51" fill="none" xmlns="http://www.w3.org/2000/svg"><path d="M7.768 32.867h5.724L17.93 17.87h.192l4.438 14.996h5.736l6.23-21.534h-6.374L25.157 24.38h-.204l-4.245-16.24h-5.363L11.1 24.343h-.205L7.18 8.139H.601l7.167 24.728Zm36.693.35c4.846 0 8.033-2.355 8.706-6l-5.399-.158c-.457 1.232-1.66 1.896-3.199 1.896-2.26 0-3.655-1.51-3.655-3.78v-.156h12.314v-1.473c0-6.11-3.704-9.466-8.947-9.466-5.58 0-9.164 3.84-9.164 9.586 0 5.94 3.536 9.55 9.344 9.55ZM40.914 21.59c.084-1.848 1.539-3.248 3.487-3.248 1.936 0 3.33 1.352 3.355 3.248h-6.842ZM56.23 32.867h5.82V29.86h.18c.746 1.715 2.406 3.272 5.196 3.272 4.088 0 7.383-3.211 7.383-9.526 0-6.544-3.487-9.526-7.347-9.526-2.922 0-4.522 1.714-5.231 3.417h-.12V8.139H56.23v24.728Zm5.76-9.273c0-3.03 1.25-4.902 3.403-4.902 2.177 0 3.38 1.92 3.38 4.902 0 2.994-1.203 4.938-3.38 4.938-2.152 0-3.403-1.932-3.403-4.938Zm32.027-3.61c-.313-3.67-3.307-5.904-8.31-5.904-5.002 0-8.19 2.185-8.165 5.904-.024 2.85 1.792 4.684 5.484 5.373l3.222.616c1.528.301 2.225.784 2.25 1.605-.025.93-1.059 1.546-2.562 1.546-1.672 0-2.802-.725-3.055-2.077l-5.808.145c.42 3.67 3.56 6.025 8.839 6.025 4.942 0 8.538-2.475 8.562-6.29-.024-2.705-1.804-4.311-5.484-5.023l-3.56-.677c-1.563-.314-2.068-.869-2.056-1.581-.012-.942 1.083-1.521 2.442-1.521 1.55 0 2.633.833 2.801 2.004l5.4-.145Zm3.352 12.883h5.88V14.32h-5.88v18.546Zm2.946-20.707c1.672 0 3.019-1.268 3.019-2.825 0-1.558-1.347-2.814-3.019-2.814-1.66 0-3.018 1.256-3.018 2.814 0 1.557 1.359 2.825 3.018 2.825Zm17.104 2.161h-3.331V9.878h-5.881v4.443h-2.441v4.347h2.441v9.019c-.036 3.755 2.393 5.638 6.541 5.445a12.265 12.265 0 0 0 3.007-.531l-.89-4.262c-.252.06-.841.181-1.286.181-.95 0-1.491-.386-1.491-1.485v-8.367h3.331V14.32Zm11.436 18.896c4.846 0 8.032-2.355 8.706-6l-5.399-.158c-.457 1.232-1.66 1.896-3.199 1.896-2.261 0-3.656-1.51-3.656-3.78v-.156h12.314v-1.473c0-6.11-3.704-9.466-8.947-9.466-5.58 0-9.163 3.84-9.163 9.586 0 5.94 3.535 9.55 9.344 9.55Zm-3.548-11.627c.085-1.848 1.54-3.248 3.488-3.248 1.936 0 3.331 1.352 3.355 3.248h-6.843Z" fill="#fff"/><path d="M68.646 46.6c1.395 0 2.225-.78 2.598-1.636h.09v1.503h2.91V34.103h-2.94v4.679h-.06c-.35-.852-1.155-1.709-2.61-1.709-1.93 0-3.68 1.491-3.68 4.763 0 3.158 1.654 4.764 3.692 4.764Zm1.022-2.3c-1.088 0-1.695-.973-1.695-2.47 0-1.49.6-2.45 1.695-2.45 1.076 0 1.702.935 1.702 2.45 0 1.504-.632 2.47-1.702 2.47Zm10.752 2.342c2.424 0 4.017-1.177 4.354-3l-2.7-.079c-.228.616-.83.948-1.6.948-1.13 0-1.827-.755-1.827-1.89v-.078h6.157v-.737c0-3.054-1.852-4.733-4.474-4.733-2.79 0-4.581 1.92-4.581 4.794 0 2.97 1.767 4.775 4.671 4.775Zm-1.773-5.814c.042-.923.77-1.624 1.743-1.624.968 0 1.666.676 1.678 1.624h-3.421Zm16.37-3.634H91.92l-1.708 6.387h-.096l-1.702-6.387h-3.096l3.163 9.273h3.367l3.168-9.273Zm5.146 9.448c2.423 0 4.017-1.177 4.353-3l-2.699-.079c-.229.616-.83.948-1.6.948-1.13 0-1.828-.755-1.828-1.89v-.078h6.157v-.737c0-3.054-1.851-4.733-4.473-4.733-2.79 0-4.582 1.92-4.582 4.794 0 2.97 1.768 4.775 4.672 4.775Zm-1.773-5.814c.042-.923.77-1.624 1.743-1.624.968 0 1.666.676 1.678 1.624h-3.422Zm10.598-6.725h-2.94v12.364h2.94V34.103Zm6.183 12.539c2.904 0 4.666-1.926 4.666-4.782 0-2.861-1.762-4.787-4.666-4.787-2.904 0-4.666 1.926-4.666 4.788 0 2.855 1.762 4.78 4.666 4.78Zm.018-2.228c-1.089 0-1.689-1.038-1.689-2.572 0-1.54.6-2.583 1.689-2.583 1.052 0 1.653 1.044 1.653 2.583 0 1.534-.601 2.572-1.653 2.572Zm6.153 5.53h2.941v-4.98h.061c.372.857 1.202 1.636 2.597 1.636 2.045 0 3.691-1.606 3.691-4.764 0-3.272-1.742-4.763-3.673-4.763-1.461 0-2.261.857-2.615 1.709h-.09v-1.588h-2.912v12.75Zm2.881-8.114c0-1.515.626-2.45 1.701-2.45 1.09 0 1.69.96 1.69 2.45 0 1.497-.6 2.47-1.69 2.47-1.075 0-1.701-.966-1.701-2.47Zm12.268 4.812c2.422 0 4.016-1.177 4.352-3l-2.698-.079c-.23.616-.83.948-1.6.948-1.131 0-1.829-.755-1.829-1.89v-.078h6.158v-.737c0-3.054-1.852-4.733-4.473-4.733-2.791 0-4.582 1.92-4.582 4.794 0 2.97 1.767 4.775 4.672 4.775Zm-1.775-5.814c.043-.923.77-1.624 1.744-1.624.969 0 1.666.676 1.678 1.624h-3.422Zm7.659 5.639h2.941v-5.035c0-1.105.782-1.847 1.834-1.847.349 0 .871.06 1.154.157v-2.566a3.35 3.35 0 0 0-.823-.109c-1.011 0-1.817.592-2.153 1.817h-.097v-1.69h-2.856v9.273Z" fill="#E00"/><path d="M28.22 42.5h25.962" stroke="#E00"/><path d="M36.121 14.733 24.833 12.92l8.153-7.253 3.135 9.066Z" fill="#fff"/></svg>