<svg width="400" height="400" viewBox="0 0 400 400" fill="none" xmlns="http://www.w3.org/2000/svg">
<path d="M20.8547 216.644H36.2214L48.1338 176.656H48.6505L60.5629 216.644H75.962L92.6891 159.222H86.3634H80.3028H75.5755L67.5359 194.01H66.9871L55.5914 150.705H41.1932L29.7971 193.913H29.2483L19.2729 150.705H1.61401L20.8547 216.644ZM119.358 217.578C132.368 217.578 140.924 211.3 142.731 201.576L128.236 201.158C127.01 204.442 123.781 206.213 119.649 206.213C113.58 206.213 109.835 202.188 109.835 196.135V195.716H142.893V191.788C142.893 175.497 132.95 166.546 118.874 166.546C103.895 166.546 94.2744 176.785 94.2744 192.11C94.2744 207.951 103.766 217.578 119.358 217.578ZM109.835 186.572C110.061 181.646 113.967 177.911 119.197 177.911C124.394 177.911 128.139 181.517 128.204 186.572H109.835ZM150.955 216.644H166.58V208.627H167.065C169.066 213.199 173.521 217.353 181.011 217.353C191.987 217.353 200.833 208.788 200.833 191.949C200.833 174.499 191.471 166.546 181.108 166.546C173.263 166.546 168.969 171.118 167.065 175.658H166.742V150.705H150.955V216.644ZM166.419 191.917C166.419 183.836 169.777 178.845 175.555 178.845C181.398 178.845 184.627 183.965 184.627 191.917C184.627 199.902 181.398 205.086 175.555 205.086C169.777 205.086 166.419 199.934 166.419 191.917ZM252.397 182.29C251.557 172.502 243.519 166.546 230.089 166.546C216.66 166.546 208.104 172.374 208.169 182.29C208.104 189.889 212.979 194.783 222.89 196.618L231.542 198.26C235.642 199.065 237.514 200.353 237.579 202.542C237.514 205.021 234.738 206.663 230.703 206.663C226.215 206.663 223.181 204.731 222.503 201.126L206.91 201.512C208.04 211.3 216.466 217.578 230.638 217.578C243.907 217.578 253.559 210.978 253.624 200.803C253.559 193.592 248.781 189.309 238.903 187.41L229.347 185.606C225.15 184.769 223.794 183.288 223.826 181.389C223.794 178.878 226.732 177.332 230.38 177.332C234.544 177.332 237.45 179.554 237.902 182.677L252.397 182.29ZM261.396 216.644H277.182V167.19H261.396V216.644ZM269.305 161.427C273.793 161.427 277.408 158.046 277.408 153.893C277.408 149.739 273.793 146.391 269.305 146.391C264.85 146.391 261.202 149.739 261.202 153.893C261.202 158.046 264.85 161.427 269.305 161.427ZM315.221 167.19H306.279V155.341H290.491V167.19H283.937V178.781H290.491V202.832C290.394 212.845 296.915 217.868 308.051 217.353C311.864 217.16 314.606 216.387 316.124 215.936L313.733 204.571C313.057 204.731 311.476 205.054 310.282 205.054C307.73 205.054 306.279 204.023 306.279 201.093V178.781H315.221V167.19ZM345.921 217.578C358.93 217.578 367.485 211.3 369.294 201.576L354.8 201.158C353.573 204.442 350.342 206.213 346.212 206.213C340.142 206.213 336.397 202.188 336.397 196.135V195.716H369.454V191.788C369.454 175.497 359.512 166.546 345.436 166.546C330.457 166.546 320.836 176.785 320.836 192.11C320.836 207.951 330.327 217.578 345.921 217.578ZM336.397 186.572C336.624 181.646 340.53 177.911 345.761 177.911C350.957 177.911 354.703 181.517 354.767 186.572H336.397Z" fill="black"/>
<path d="M184.284 253.265C188.029 253.265 190.257 251.188 191.258 248.903H191.5V252.911H199.312V219.941H191.419V232.418H191.258C190.321 230.148 188.158 227.862 184.252 227.862C179.071 227.862 174.374 231.838 174.374 240.564C174.374 248.983 178.813 253.265 184.284 253.265ZM187.029 247.132C184.107 247.132 182.477 244.54 182.477 240.548C182.477 236.571 184.091 234.011 187.029 234.011C189.918 234.011 191.597 236.507 191.597 240.548C191.597 244.556 189.902 247.132 187.029 247.132ZM215.894 253.378C222.399 253.378 226.676 250.239 227.58 245.377L220.333 245.168C219.719 246.81 218.105 247.695 216.039 247.695C213.004 247.695 211.132 245.683 211.132 242.656V242.447H227.661V240.483C227.661 232.337 222.689 227.862 215.651 227.862C208.162 227.862 203.352 232.981 203.352 240.644C203.352 248.565 208.097 253.378 215.894 253.378ZM211.132 237.875C211.245 235.412 213.198 233.545 215.813 233.545C218.412 233.545 220.284 235.348 220.317 237.875H211.132ZM255.077 228.184H246.764L242.18 245.216H241.922L237.354 228.184H229.041L237.531 252.911H246.571L255.077 228.184ZM268.894 253.378C275.399 253.378 279.677 250.239 280.581 245.377L273.333 245.168C272.72 246.81 271.106 247.695 269.04 247.695C266.005 247.695 264.133 245.683 264.133 242.656V242.447H280.661V240.483C280.661 232.337 275.69 227.862 268.652 227.862C261.163 227.862 256.352 232.981 256.352 240.644C256.352 248.565 261.098 253.378 268.894 253.378ZM264.133 237.875C264.246 235.412 266.199 233.545 268.814 233.545C271.412 233.545 273.285 235.348 273.317 237.875H264.133ZM292.586 219.941H284.693V252.911H292.586V219.941ZM309.185 253.378C316.979 253.378 321.709 248.243 321.709 240.628C321.709 232.997 316.979 227.862 309.185 227.862C301.387 227.862 296.658 232.997 296.658 240.628C296.658 248.243 301.387 253.378 309.185 253.378ZM309.233 247.438C306.309 247.438 304.697 244.669 304.697 240.58C304.697 236.474 306.309 233.69 309.233 233.69C312.057 233.69 313.67 236.474 313.67 240.58C313.67 244.669 312.057 247.438 309.233 247.438ZM325.751 262.184H333.645V248.903H333.809C334.809 251.188 337.036 253.265 340.782 253.265C346.27 253.265 350.691 248.983 350.691 240.564C350.691 231.838 346.012 227.862 340.83 227.862C336.906 227.862 334.761 230.148 333.809 232.418H333.567V228.184H325.751V262.184ZM333.485 240.548C333.485 236.507 335.164 234.011 338.051 234.011C340.976 234.011 342.588 236.571 342.588 240.548C342.588 244.54 340.976 247.132 338.051 247.132C335.164 247.132 333.485 244.556 333.485 240.548ZM366.418 253.378C372.921 253.378 377.2 250.239 378.103 245.377L370.858 245.168C370.242 246.81 368.63 247.695 366.564 247.695C363.527 247.695 361.654 245.683 361.654 242.656V242.447H378.185V240.483C378.185 232.337 373.212 227.862 366.176 227.862C358.685 227.862 353.876 232.981 353.876 240.644C353.876 248.565 358.621 253.378 366.418 253.378ZM361.654 237.875C361.77 235.412 363.721 233.545 366.336 233.545C368.936 233.545 370.809 235.348 370.839 237.875H361.654ZM382.215 252.911H390.109V239.485C390.109 236.539 392.209 234.559 395.033 234.559C395.97 234.559 397.373 234.72 398.13 234.978V228.136C397.47 227.958 396.645 227.846 395.921 227.846C393.209 227.846 391.045 229.423 390.142 232.692H389.882V228.184H382.215V252.911Z" fill="#EE0000"/>
<path d="M75.7576 242.333H145.455" stroke="#EE0000"/>
<path d="M96.9696 168.289L66.6665 163.453L88.552 144.111L96.9696 168.289Z" fill="black"/>
</svg>
