<svg width="149" height="51" fill="none" xmlns="http://www.w3.org/2000/svg"><path d="M7.768 32.867h5.724L17.93 17.87h.192l4.438 14.996h5.736l6.23-21.534h-6.374L25.157 24.38h-.204L20.708 8.14h-5.363L11.1 24.343h-.205L7.18 8.139H.6l7.168 24.728Zm36.693.35c4.846 0 8.033-2.355 8.706-6l-5.4-.158c-.456 1.232-1.66 1.896-3.198 1.896-2.26 0-3.655-1.51-3.655-3.78v-.156h12.314v-1.473c0-6.11-3.704-9.466-8.947-9.466-5.58 0-9.164 3.84-9.164 9.586 0 5.94 3.536 9.55 9.344 9.55v.001ZM40.914 21.59c.084-1.848 1.539-3.248 3.487-3.248 1.936 0 3.33 1.352 3.355 3.248h-6.842ZM56.23 32.867h5.82V29.86h.18c.746 1.715 2.406 3.272 5.196 3.272 4.088 0 7.383-3.211 7.383-9.526 0-6.544-3.487-9.526-7.347-9.526-2.922 0-4.522 1.714-5.231 3.417h-.12V8.139H56.23v24.728Zm5.76-9.273c0-3.03 1.25-4.902 3.403-4.902 2.177 0 3.38 1.92 3.38 4.902 0 2.994-1.203 4.938-3.38 4.938-2.152 0-3.403-1.932-3.403-4.938Zm32.027-3.61c-.313-3.67-3.307-5.904-8.31-5.904-5.002 0-8.19 2.185-8.165 5.904-.024 2.85 1.792 4.684 5.484 5.373l3.222.616c1.528.301 2.225.784 2.25 1.605-.025.93-1.06 1.546-2.562 1.546-1.672 0-2.802-.725-3.055-2.077l-5.808.145c.42 3.67 3.56 6.025 8.839 6.025 4.942 0 8.538-2.475 8.562-6.29-.024-2.705-1.804-4.311-5.484-5.023l-3.56-.677c-1.563-.314-2.068-.869-2.056-1.581-.012-.942 1.083-1.521 2.442-1.521 1.55 0 2.633.833 2.8 2.004l5.4-.145Zm3.352 12.883h5.88V14.32h-5.88v18.547Zm2.946-20.707c1.672 0 3.019-1.268 3.019-2.825 0-1.558-1.347-2.814-3.019-2.814-1.66 0-3.018 1.256-3.018 2.814 0 1.557 1.359 2.825 3.018 2.825Zm17.104 2.161h-3.331V9.878h-5.881v4.443h-2.441v4.347h2.441v9.019c-.036 3.755 2.393 5.638 6.541 5.445 1.02-.051 2.03-.23 3.007-.531l-.89-4.262c-.252.06-.841.181-1.286.181-.95 0-1.491-.386-1.491-1.485v-8.367h3.331V14.32v.001Zm11.436 18.896c4.846 0 8.032-2.355 8.706-6l-5.399-.158c-.457 1.232-1.66 1.896-3.199 1.896-2.261 0-3.656-1.51-3.656-3.78v-.156h12.314v-1.473c0-6.11-3.704-9.466-8.947-9.466-5.58 0-9.163 3.84-9.163 9.586 0 5.94 3.535 9.55 9.344 9.55v.001Zm-3.548-11.627c.085-1.848 1.54-3.248 3.488-3.248 1.936 0 3.331 1.352 3.355 3.248h-6.843Z" fill="#fff"/><path d="M68.646 46.6c1.395 0 2.225-.78 2.598-1.636h.09v1.503h2.91V34.103h-2.94v4.679h-.06c-.35-.852-1.155-1.709-2.61-1.709-1.93 0-3.68 1.491-3.68 4.763 0 3.158 1.654 4.764 3.692 4.764Zm1.022-2.3c-1.088 0-1.695-.973-1.695-2.47 0-1.49.6-2.45 1.695-2.45 1.076 0 1.702.935 1.702 2.45 0 1.504-.632 2.47-1.702 2.47Zm10.752 2.342c2.424 0 4.017-1.177 4.354-3l-2.7-.079c-.228.616-.83.948-1.6.948-1.13 0-1.827-.755-1.827-1.89v-.078h6.157v-.737c0-3.054-1.852-4.733-4.474-4.733-2.79 0-4.58 1.92-4.58 4.794 0 2.97 1.766 4.775 4.67 4.775Zm-1.773-5.814c.042-.923.77-1.624 1.743-1.624.968 0 1.666.676 1.678 1.624h-3.42Zm16.37-3.634H91.92l-1.708 6.387h-.096l-1.702-6.387h-3.096l3.163 9.273h3.367l3.168-9.273h.001Zm5.146 9.448c2.423 0 4.017-1.177 4.353-3l-2.699-.079c-.229.616-.83.948-1.6.948-1.13 0-1.828-.755-1.828-1.89v-.078h6.157v-.737c0-3.054-1.851-4.733-4.473-4.733-2.79 0-4.582 1.92-4.582 4.794 0 2.97 1.768 4.775 4.672 4.775Zm-1.773-5.814c.042-.923.77-1.624 1.743-1.624.968 0 1.666.676 1.678 1.624h-3.422.001Zm10.598-6.725h-2.94v12.364h2.94V34.103Zm6.183 12.539c2.904 0 4.666-1.926 4.666-4.782 0-2.861-1.762-4.787-4.666-4.787-2.904 0-4.666 1.926-4.666 4.788 0 2.855 1.762 4.78 4.666 4.78v.001Zm.018-2.228c-1.089 0-1.689-1.038-1.689-2.572 0-1.54.6-2.583 1.689-2.583 1.052 0 1.653 1.044 1.653 2.583 0 1.534-.601 2.572-1.653 2.572Zm6.153 5.53h2.941v-4.98h.061c.372.857 1.202 1.636 2.597 1.636 2.045 0 3.691-1.606 3.691-4.764 0-3.272-1.742-4.763-3.673-4.763-1.461 0-2.261.857-2.615 1.709h-.09v-1.588h-2.912v12.75Zm2.881-8.114c0-1.515.626-2.45 1.701-2.45 1.09 0 1.69.96 1.69 2.45 0 1.497-.6 2.47-1.69 2.47-1.075 0-1.701-.966-1.701-2.47Zm12.268 4.812c2.422 0 4.016-1.177 4.352-3l-2.698-.079c-.23.616-.83.948-1.6.948-1.131 0-1.829-.755-1.829-1.89v-.078h6.158v-.737c0-3.054-1.852-4.733-4.473-4.733-2.791 0-4.582 1.92-4.582 4.794 0 2.97 1.767 4.775 4.672 4.775Zm-1.775-5.814c.043-.923.77-1.624 1.744-1.624.969 0 1.666.676 1.678 1.624h-3.422Zm7.659 5.639h2.941v-5.035c0-1.105.782-1.847 1.834-1.847.349 0 .871.06 1.154.157v-2.566a3.353 3.353 0 0 0-.823-.109c-1.011 0-1.817.592-2.153 1.817h-.097v-1.69h-2.856v9.273Z" fill="#E00"/><path d="M28.22 42.5h25.962" stroke="#E00"/><path d="M36.121 14.733 24.833 12.92l8.153-7.253 3.135 9.066Z" fill="#fff"/><g filter="url(#a)"><path d="M39.36 14.036c1.913-2.254 5.76-4.916 9.26-4.698 3.5.217 7.68 2.865 9.048 4.698 1.644 2.2.39 5.113.39 5.113s-.043-3.395-2.246-2.438c-1.467.68-2.246 4.482-2.246 4.482s-3.238-4.006-6.511-5.575a14.743 14.743 0 0 0-7.695-1.582Z" fill="#FF0D2B"/><path opacity=".15" d="M53.566 14.6c-1.02.563-.24 2.933-2.905 3.558 1.042.94 2.013 1.95 2.905 3.021 0 0 .78-3.83 2.246-4.481 1.134-.51 1.693.156 1.97.923l.106-.353c-.957-1.948-3.288-3.232-4.322-2.668Z" fill="#000"/><path d="M39.7 16.582c.492.056.988-.042 1.417-.278.138.146.305.263.492.344.186.082.387.127.592.131.411 0 .821-.033 1.226-.101a.408.408 0 0 1 .156 0 .39.39 0 0 1 .156.142c.243.303.576.53.954.65.379.122.787.132 1.171.03a2.214 2.214 0 0 0 1.035 1.303 2.352 2.352 0 0 0 1.686.251 1.08 1.08 0 0 0 .123.603c.1.186.25.341.437.45.38.207.81.317 1.247.319a.291.291 0 0 1 .198.068.23.23 0 0 1 .035.135c-.013.386.006.772.057 1.155.03.191.12.37.258.51.138.143.317.241.514.284.09.001.179.018.263.047.19.11.106.394.155.598.093.373.801.129.468.89a2.473 2.473 0 0 0 1.168-.796c.298-.37.476-.816.511-1.282a.81.81 0 0 0 .392-.256.756.756 0 0 0 .175-.423 1.751 1.751 0 0 0-.122-.819 1.819 1.819 0 0 0-.487-.682c-.092-.102-.312-.224-.376-.319s-.042-.292-.056-.441a1.9 1.9 0 0 0-.348-.876 1.343 1.343 0 0 0-.544-.428 1.406 1.406 0 0 0-.695-.108 2.032 2.032 0 0 0-.324-.832 2.131 2.131 0 0 0-.655-.628 2.267 2.267 0 0 0-1.792-.245 2.366 2.366 0 0 0-1.104-1.301 2.536 2.536 0 0 0-1.73-.26c-.119.04-.249.04-.368 0a.588.588 0 0 1-.17-.15 2.694 2.694 0 0 0-1.572-.854 2.762 2.762 0 0 0-1.78.304 2.321 2.321 0 0 0-.867-.55 2.403 2.403 0 0 0-1.031-.129c-.456.05-.885.23-1.233.516-.262.218-.418.53-.709.72-.708.475-1.317.883-1.317 1.8.01.148.01.298 0 .447-.05.286-.255.53-.284.822-.028.292.312.611.539.428.159-.309.341-.606.545-.89.347-.468.709-.441 1.261-.353l.333.055Z" fill="#fff"/><path d="m52.177 24.22.07-.169c.17-.394.057-.441-.14-.523a.48.48 0 0 1-.205-.112.452.452 0 0 1-.122-.193 1.426 1.426 0 0 1 0-.245c0-.156 0-.25-.085-.298a.375.375 0 0 0-.156 0h-.064a1.125 1.125 0 0 1-.567-.309 1.05 1.05 0 0 1-.29-.56 3.002 3.002 0 0 1-.056-.795v-.455c0-.013-.093 0-.128 0a2.79 2.79 0 0 1-1.29-.333 1.29 1.29 0 0 1-.44-.436 1.225 1.225 0 0 1-.176-.582 2.461 2.461 0 0 1-1.645-.294 2.293 2.293 0 0 1-1.033-1.26c-.39.081-.796.057-1.172-.072a2.125 2.125 0 0 1-.953-.655c-.043-.055-.071-.095-.107-.11h-.113l-.262.035c-.323.055-.65.075-.978.061a1.673 1.673 0 0 1-1.105-.441 2.44 2.44 0 0 1-1.417.244l-.348-.04c-.545-.089-.843-.11-1.162.312-.2.278-.378.57-.53.876v.034a.335.335 0 0 1-.39 0 .603.603 0 0 1-.237-.23.57.57 0 0 1-.075-.314c.028-.16.078-.315.149-.461.06-.114.105-.235.134-.36.007-.1.007-.2 0-.299V16.1c0-.937.63-1.358 1.297-1.833l.063-.04c.136-.106.255-.23.355-.367.1-.128.21-.246.333-.353a2.455 2.455 0 0 1 1.29-.537c.353-.028.708.018 1.041.136.333.117.635.302.885.543a2.86 2.86 0 0 1 1.816-.275c.62.11 1.182.42 1.592.88a.472.472 0 0 0 .135.128c.092.03.191.03.283 0a2.649 2.649 0 0 1 1.779.236c.543.282.96.743 1.176 1.299a2.379 2.379 0 0 1 1.782.282c.261.161.486.371.66.618.173.247.292.525.35.818h.077c.227.005.45.061.65.164.201.103.374.249.505.427.202.27.327.585.361.916.004.054.004.109 0 .163a.608.608 0 0 0 .043.244c.055.055.114.105.177.15.07.054.142.102.191.15.225.199.398.445.507.72.108.274.148.57.117.861a.867.867 0 0 1-.17.452.921.921 0 0 1-.39.302 2.424 2.424 0 0 1-.556 1.297 2.59 2.59 0 0 1-1.201.801l-.255-.061Zm-3.486-5.295v.136c-.017.19.023.38.114.55.092.17.232.31.403.407.364.203.777.311 1.198.312a.354.354 0 0 1 .269.095c.039.059.059.128.057.197.007.127.007.254 0 .38-.01.253.008.506.056.754.03.174.114.335.24.463.127.128.29.218.469.257h.028c.084.002.166.02.241.054.177.102.177.292.184.462a.842.842 0 0 0 0 .197c0 .088.092.129.22.176a.462.462 0 0 1 .294.229.42.42 0 0 1 .01.362 2.43 2.43 0 0 0 .983-.787c.25-.341.4-.74.434-1.155v-.075h.078c.27-.04.44-.339.482-.61a1.652 1.652 0 0 0-.115-.779c-.101-.247-.26-.469-.466-.648l-.163-.129a1.024 1.024 0 0 1-.22-.196.602.602 0 0 1-.07-.347.81.81 0 0 0 0-.136 1.682 1.682 0 0 0-.333-.835 1.23 1.23 0 0 0-.5-.396 1.289 1.289 0 0 0-.64-.1h-.1v-.094a1.927 1.927 0 0 0-.305-.796 2.02 2.02 0 0 0-.626-.6 2.147 2.147 0 0 0-1.712-.227h-.099v-.095a2.27 2.27 0 0 0-1.062-1.254 2.433 2.433 0 0 0-1.666-.247.634.634 0 0 1-.446 0 .523.523 0 0 1-.184-.163 2.623 2.623 0 0 0-1.516-.82 2.69 2.69 0 0 0-1.715.284l-.07.04-.058-.054a2.224 2.224 0 0 0-1.467-.646 2.243 2.243 0 0 0-1.53.497c-.11.1-.212.21-.304.326-.112.153-.245.29-.397.407l-.064.041c-.652.448-1.218.835-1.211 1.677a.794.794 0 0 0 0 .13c.01.11.01.221 0 .332a1.55 1.55 0 0 1-.142.407 1.368 1.368 0 0 0-.135.408.387.387 0 0 0 .051.207.41.41 0 0 0 .155.152.14.14 0 0 0 .156 0c.16-.306.342-.6.545-.882.376-.503.765-.482 1.353-.387l.326.04c.474.056.954-.037 1.368-.264l.07-.041.057.068c.13.134.287.242.46.316.175.075.363.115.553.118.319.005.636-.018.95-.067h.255a.53.53 0 0 1 .205 0c.08.033.148.09.192.162.226.297.54.522.902.646.361.123.753.14 1.124.047h.1v.095c.151.521.506.966.991 1.243a2.215 2.215 0 0 0 1.615.238l.128-.082Z" fill="#E0E0E0"/><path d="M58.107 22.381c.23-.017.449-.099.63-.235.18-.137.314-.322.383-.532a1.221 1.221 0 0 0 .985.081 1.21 1.21 0 0 0 .432-.265 1.15 1.15 0 0 0 .277-.414 3.627 3.627 0 0 1-.56-2.716.805.805 0 0 0-.524-.333.79.79 0 0 0-.61.068 1.123 1.123 0 0 0-.29-.556 1.478 1.478 0 0 0-1.261-.19c-.197.074-.367.2-.493.364-.125.163-.2.357-.216.56a1.38 1.38 0 0 0-1.006.19.963.963 0 0 0-.337.374.917.917 0 0 0-.095.488.7.7 0 0 0 .117.313.74.74 0 0 0 .252.23c-.125.12-.219.268-.274.429-.055.161-.07.333-.045.5.026.135.09.26.185.362a.784.784 0 0 0 .353.216c.274.075.56.102.843.081.022.25.137.485.324.661.188.176.435.281.697.297.076.016.155.025.233.027Z" fill="#fff"/><path d="M57.937 22.49h-.035a1.225 1.225 0 0 1-.753-.297 1.134 1.134 0 0 1-.381-.688 2.21 2.21 0 0 1-.786-.088.882.882 0 0 1-.403-.257.827.827 0 0 1-.2-.422 1.188 1.188 0 0 1 .27-.93.753.753 0 0 1-.217-.236.718.718 0 0 1-.095-.3.988.988 0 0 1 .095-.542c.082-.168.211-.312.372-.416.288-.184.636-.262.978-.218.034-.2.121-.39.254-.547.133-.159.307-.281.504-.355a1.534 1.534 0 0 1 1.36.21c.138.137.235.305.284.489a.967.967 0 0 1 .567 0c.118.02.23.064.33.129.1.064.186.147.25.244a1.136 1.136 0 0 1 .07 1.297c.22.107.39.285.483.503a1.212 1.212 0 0 1-.294 1.428c-.131.119-.287.21-.457.269-.309.106-.647.106-.956 0a1.263 1.263 0 0 1-.428.494 1.34 1.34 0 0 1-.628.226l-.184.006Zm-.985-1.155v.095c.02.228.125.44.295.6.17.16.395.256.633.27.069.006.137.006.206 0 .207-.014.406-.085.57-.206.166-.12.29-.285.358-.474v-.149l.127.095a1.148 1.148 0 0 0 .9.068c.148-.052.282-.135.393-.241a1.04 1.04 0 0 0 .252-.377 1.027 1.027 0 0 0 0-.828.753.753 0 0 0-.193-.273.795.795 0 0 0-.296-.169l-.142-.047.093-.102a.939.939 0 0 0 .205-.584.938.938 0 0 0-.205-.584.726.726 0 0 0-.468-.306.736.736 0 0 0-.538.062l-.114.054v-.115a1.063 1.063 0 0 0-.27-.516 1.373 1.373 0 0 0-1.155-.163c-.177.069-.33.185-.443.333a.96.96 0 0 0-.194.509v.102h-.113a1.27 1.27 0 0 0-.928.17.88.88 0 0 0-.304.34.838.838 0 0 0-.086.44c.01.098.046.191.103.273a.623.623 0 0 0 .223.196l.1.067-.093.082a.985.985 0 0 0-.247.392.95.95 0 0 0-.036.457.67.67 0 0 0 .167.312c.083.088.19.154.307.19.263.073.537.099.808.075l.085-.048Z" fill="#E0E0E0"/></g><defs><filter id="a" x="37" y="2.325" width="33" height="22.957" filterUnits="userSpaceOnUse" color-interpolation-filters="sRGB"><feFlood flood-opacity="0" result="BackgroundImageFix"/><feColorMatrix in="SourceAlpha" values="0 0 0 0 0 0 0 0 0 0 0 0 0 0 0 0 0 0 127 0" result="hardAlpha"/><feOffset dx="5" dy="-3"/><feGaussianBlur stdDeviation="2"/><feComposite in2="hardAlpha" operator="out"/><feColorMatrix values="0 0 0 0 0 0 0 0 0 0 0 0 0 0 0 0 0 0 0.13 0"/><feBlend in2="BackgroundImageFix" result="effect1_dropShadow_488_2313"/><feBlend in="SourceGraphic" in2="effect1_dropShadow_488_2313" result="shape"/></filter></defs></svg>