<svg width="15" height="15" viewBox="0 0 15 15" fill="none" xmlns="http://www.w3.org/2000/svg">
<g clip-path="url(#clip0_227_855)">
<path d="M14.9853 4.41004C14.9501 3.61303 14.8212 3.0651 14.6366 2.5903C14.4461 2.08632 14.1531 1.63511 13.7692 1.26001C13.3941 0.879078 12.9399 0.583076 12.4418 0.395585C11.9642 0.210956 11.4191 0.0820702 10.6221 0.0469299C9.81917 0.00881367 9.56426 0 7.52773 0C5.49119 0 5.23628 0.00881367 4.4363 0.0439539C3.63929 0.0790941 3.09135 0.208094 2.61667 0.392609C2.11257 0.583076 1.66136 0.876102 1.28626 1.26001C0.905325 1.63511 0.609437 2.0893 0.421831 2.58744C0.237201 3.0651 0.108315 3.61006 0.0731751 4.40706C0.0350588 5.21002 0.0262451 5.46493 0.0262451 7.50147C0.0262451 9.538 0.0350588 9.79291 0.0701991 10.5929C0.105339 11.3899 0.23434 11.9378 0.418969 12.4126C0.609437 12.9166 0.905325 13.3678 1.28626 13.7429C1.66136 14.1239 2.11555 14.4199 2.61369 14.6073C3.09135 14.792 3.63631 14.9209 4.43343 14.956C5.2333 14.9913 5.48833 15 7.52486 15C9.5614 15 9.81631 14.9913 10.6163 14.956C11.4133 14.9209 11.9612 14.792 12.4359 14.6073C13.444 14.2176 14.241 13.4206 14.6308 12.4126C14.8153 11.935 14.9443 11.3899 14.9794 10.5929C15.0146 9.79291 15.0234 9.538 15.0234 7.50147C15.0234 5.46493 15.0204 5.21002 14.9853 4.41004ZM13.6345 10.5343C13.6022 11.2668 13.4791 11.6624 13.3766 11.9262C13.1245 12.5796 12.6059 13.0983 11.9524 13.3503C11.6887 13.4529 11.2903 13.5759 10.5606 13.6081C9.76938 13.6433 9.5321 13.652 7.5307 13.652C5.52931 13.652 5.28905 13.6433 4.50074 13.6081C3.76817 13.5759 3.37259 13.4529 3.10886 13.3503C2.78367 13.2301 2.48767 13.0397 2.24741 12.7906C1.99834 12.5473 1.80787 12.2543 1.68768 11.9291C1.58512 11.6654 1.46208 11.2668 1.42991 10.5373C1.39466 9.74609 1.38596 9.50869 1.38596 7.5073C1.38596 5.50591 1.39466 5.26565 1.42991 4.47746C1.46208 3.74489 1.58512 3.34931 1.68768 3.08559C1.80787 2.76028 1.99834 2.46439 2.25039 2.22402C2.49351 1.97495 2.78653 1.78448 3.11184 1.66441C3.37556 1.56185 3.77412 1.4388 4.50371 1.40652C5.29489 1.37138 5.53228 1.36257 7.53356 1.36257C9.53793 1.36257 9.77522 1.37138 10.5635 1.40652C11.2961 1.4388 11.6917 1.56185 11.9554 1.66441C12.2806 1.78448 12.5766 1.97495 12.8169 2.22402C13.0659 2.46726 13.2564 2.76028 13.3766 3.08559C13.4791 3.34931 13.6022 3.74776 13.6345 4.47746C13.6696 5.26863 13.6784 5.50591 13.6784 7.5073C13.6784 9.50869 13.6696 9.74311 13.6345 10.5343Z" fill="white"/>
<path d="M7.52773 3.64795C5.40043 3.64795 3.67444 5.37383 3.67444 7.50124C3.67444 9.62866 5.40043 11.3545 7.52773 11.3545C9.65515 11.3545 11.381 9.62866 11.381 7.50124C11.381 5.37383 9.65515 3.64795 7.52773 3.64795ZM7.52773 10.0008C6.14765 10.0008 5.0282 8.88144 5.0282 7.50124C5.0282 6.12104 6.14765 5.00171 7.52773 5.00171C8.90793 5.00171 10.0273 6.12104 10.0273 7.50124C10.0273 8.88144 8.90793 10.0008 7.52773 10.0008Z" fill="white"/>
<path d="M12.433 3.49625C12.433 3.99302 12.0302 4.39582 11.5334 4.39582C11.0366 4.39582 10.6338 3.99302 10.6338 3.49625C10.6338 2.99936 11.0366 2.59668 11.5334 2.59668C12.0302 2.59668 12.433 2.99936 12.433 3.49625Z" fill="white"/>
</g>
<defs>
<clipPath id="clip0_227_855">
<rect width="15" height="15" fill="white"/>
</clipPath>
</defs>
</svg>
