<svg width="15" height="15" viewBox="0 0 15 15" fill="none" xmlns="http://www.w3.org/2000/svg">
<g clip-path="url(#clip0_227_835)">
<path d="M14.7117 9.32384C14.8588 8.73515 14.9332 8.12862 14.9332 7.51869C14.9332 5.53392 14.1603 3.66807 12.757 2.26465C11.3536 0.861238 9.48763 0.0883486 7.50294 0.0883486C6.90007 0.0883486 6.3004 0.161133 5.71812 0.304871C5.22163 0.102448 4.69612 0 4.15366 0C1.86328 0 0 1.86328 0 4.15366C0 4.68897 0.0999758 5.20835 0.297547 5.69972C0.148224 6.29261 0.072693 6.90373 0.072693 7.51869C0.072693 9.50338 0.845583 11.3694 2.249 12.7727C3.65241 14.1761 5.51826 14.9489 7.50294 14.9489C8.12505 14.9489 8.74303 14.8716 9.34243 14.7191C9.8217 14.9055 10.3268 15 10.8464 15C13.1367 15 15 13.1367 15 10.8464C15 10.3199 14.9031 9.80852 14.7117 9.32384ZM11.2528 9.43132C11.2528 10.9579 10.0109 12.1999 8.48421 12.1999H6.96113C5.49409 12.1999 4.21574 11.2072 3.85255 9.786C3.78672 9.52846 3.84293 9.25975 4.00672 9.049C4.17216 8.83577 4.42173 8.71355 4.69135 8.71355H5.30403C5.66932 8.71355 5.99662 8.94472 6.11821 9.28868C6.24437 9.64565 6.58311 9.88543 6.96113 9.88543H8.48421C8.7346 9.88543 8.93831 9.68172 8.93831 9.43132V9.38225C8.93831 9.17644 8.79952 8.99599 8.60057 8.94325L5.81214 8.20406C4.59971 7.88271 3.75294 6.78224 3.75294 5.52796V5.47889C3.75294 3.95225 4.99504 2.71033 6.5215 2.71033H8.04475C9.5118 2.71033 10.7901 3.70286 11.1533 5.12422C11.2191 5.38166 11.163 5.65028 10.9992 5.86122C10.8336 6.07426 10.5841 6.19667 10.3144 6.19667H9.70186C9.33657 6.19667 9.00926 5.96531 8.88759 5.62135C8.76134 5.26448 8.42278 5.02479 8.04475 5.02479H6.5215C6.2711 5.02479 6.06739 5.2285 6.06739 5.47889V5.52796C6.06739 5.73359 6.20637 5.91423 6.40522 5.96687L9.19365 6.70616C10.406 7.02751 11.2528 8.12798 11.2528 9.38225V9.43132Z" fill="white"/>
</g>
<defs>
<clipPath id="clip0_227_835">
<rect width="15" height="15" fill="white"/>
</clipPath>
</defs>
</svg>
