<svg width="24" height="24" viewBox="0 0 24 24" fill="none" xmlns="http://www.w3.org/2000/svg">
<path d="M0.935066 11.3423L6.01827 13.5012L7.98578 20.7014C8.11168 21.1626 8.60723 21.333 8.93615 21.027L11.7696 18.3985C12.0666 18.1231 12.4897 18.1094 12.8001 18.3658L17.9106 22.588C18.2625 22.879 18.761 22.6596 18.8492 22.1758L22.593 1.68374C22.6893 1.15522 22.233 0.714324 21.7907 0.908959L0.929109 10.0668C0.414288 10.2927 0.418774 11.1221 0.935066 11.3423ZM7.6687 12.3519L17.6032 5.38934C17.7817 5.26458 17.9654 5.53929 17.8121 5.70112L9.61327 14.3735C9.32508 14.6788 9.13919 15.0873 9.08653 15.5307L8.80725 17.8859C8.77026 18.2004 8.38206 18.2316 8.30581 17.9273L7.23168 13.6325C7.10865 13.1426 7.28793 12.6194 7.6687 12.3519Z" fill="white"/>
</svg>
