<svg width="15" height="15" viewBox="0 0 15 15" fill="none" xmlns="http://www.w3.org/2000/svg">
<path d="M12.2077 10.6666C11.5192 9.97166 10.3958 9.97254 9.70837 10.6685L8.61328 11.7773L8.54271 11.7497C6.10614 10.7971 4.18485 8.86022 3.25195 6.41602L4.36245 5.29163C5.04387 4.60169 5.03786 3.49025 4.349 2.80772L2.40234 0.878906C1.07449 0.878906 0 1.9534 0 3.28125C0 9.75334 5.24666 15 11.7188 15C13.0466 15 14.1211 13.9255 14.1211 12.5977L12.2077 10.6666Z" fill="white"/>
<path d="M12.8033 2.19671C11.3867 0.780147 9.50332 0 7.5 0V0.878906C11.1509 0.878906 14.1211 3.84911 14.1211 7.5H15C15 5.49668 14.2199 3.61327 12.8033 2.19671Z" fill="white"/>
<path d="M7.5 2.63672V3.51562C9.697 3.51562 11.4844 5.303 11.4844 7.5H12.3633C12.3633 4.81837 10.1816 2.63672 7.5 2.63672Z" fill="white"/>
</svg>
