<svg width="15" height="15" viewBox="0 0 15 15" fill="none" xmlns="http://www.w3.org/2000/svg">
<path d="M8.99937 0H6.00062C3.11432 0 0.752808 2.36152 0.752808 5.24781V7.49688C0.752808 9.52103 1.93357 11.3765 3.75156 12.2387V14.7501C3.75156 14.975 4.03269 15.0875 4.18263 14.9188L6.35672 12.7447H8.99937C11.8857 12.7447 14.2472 10.3832 14.2472 7.49688V5.24781C14.2472 2.36152 11.8857 0 8.99937 0ZM10.9673 9.83965L10.1989 10.5893C9.39296 11.3765 7.31257 10.4769 5.47584 8.60267C3.63911 6.72845 2.83319 4.62932 3.60162 3.84215L4.35131 3.09246C4.63244 2.81133 5.101 2.83007 5.41961 3.1112L6.50666 4.23573C6.90025 4.62932 6.73157 5.30404 6.22553 5.45398C5.86943 5.56643 5.62578 5.96002 5.73823 6.31612C5.92565 7.14077 6.97521 8.19034 7.76239 8.3965C8.11849 8.47147 8.51207 8.28405 8.64327 7.92795C8.81195 7.42191 9.48667 7.27197 9.86151 7.66556L10.9486 8.79009C11.2484 9.05248 11.2484 9.52103 10.9673 9.83965ZM8.17471 3.56102C8.09975 3.56102 8.02478 3.56102 7.94981 3.57976C7.81861 3.5985 7.68742 3.48605 7.66868 3.35485C7.64993 3.22366 7.76239 3.09246 7.89358 3.07372C7.98729 3.05498 8.081 3.05498 8.17471 3.05498C9.54289 3.05498 10.6674 4.17951 10.6674 5.54769C10.6674 5.6414 10.6674 5.73511 10.6487 5.82882C10.6299 5.96002 10.4987 6.07247 10.3676 6.05373C10.2364 6.03499 10.1239 5.90379 10.1426 5.77259C10.1426 5.69763 10.1614 5.62266 10.1614 5.54769C10.1801 4.46064 9.2805 3.56102 8.17471 3.56102ZM9.67409 5.56643C9.67409 5.69763 9.56164 5.81008 9.43044 5.81008C9.29925 5.81008 9.18679 5.69763 9.18679 5.56643C9.18679 5.02291 8.73698 4.57309 8.19346 4.57309C8.06226 4.57309 7.94981 4.46064 7.94981 4.32945C7.94981 4.19825 8.06226 4.0858 8.19346 4.0858C8.99937 4.06706 9.67409 4.74177 9.67409 5.56643ZM11.5858 6.37234C11.5483 6.50354 11.4171 6.59725 11.2672 6.55977C11.136 6.52228 11.061 6.39109 11.0985 6.25989C11.1547 6.03499 11.1735 5.81008 11.1735 5.56643C11.1735 3.91712 9.82403 2.56768 8.17471 2.56768C8.09975 2.56768 8.02478 2.56768 7.94981 2.56768C7.81861 2.56768 7.68742 2.47397 7.68742 2.34277C7.68742 2.21158 7.78113 2.08038 7.91232 2.08038C8.00604 2.08038 8.09975 2.06164 8.17471 2.06164C10.1052 2.06164 11.6795 3.63599 11.6795 5.56643C11.6795 5.82882 11.642 6.10995 11.5858 6.37234Z" fill="white"/>
</svg>
