<svg width="15" height="15" viewBox="0 0 15 15" fill="none" xmlns="http://www.w3.org/2000/svg">
<path d="M13.4104 6.3422C14.9626 4.24084 14.6183 4.20147 15 3.54492H12.0256C12.0256 3.54492 11.8142 4.27883 11.7496 4.41021C11.1784 5.57213 9.89697 7.31552 9.12197 7.49371C8.35888 7.66926 8.46016 5.8659 8.50719 5.08472C8.55148 4.36066 8.54393 4.10728 8.52264 3.9822C8.49152 3.79944 8.33817 3.66611 8.15414 3.64288C7.77477 3.59482 7.08641 3.52684 6.31554 3.56255L5.62592 3.58543C5.89783 4.19369 6.0815 4.00726 6.18164 4.71096C6.29471 5.53482 6.25019 7.53948 5.4388 7.53948C4.13807 7.53948 2.67803 3.63293 2.63157 3.54492H0L0.240784 4.14745C2.18136 9.00547 4.60842 11.2555 7.92915 11.4426L8.36128 11.4551L8.39218 11.0354C8.43887 10.3873 8.764 9.45442 9.34067 9.45442C10.1927 9.45442 10.4388 9.70253 11.0007 10.3968C11.541 11.0625 11.9133 11.4551 12.7851 11.4551H15L14.6841 10.8199C14.1909 9.82967 13.2016 8.98075 12.8152 8.48831C12.6752 8.30292 12.5375 8.00983 12.6801 7.6553C12.7967 7.34653 13.1439 6.70258 13.4104 6.3422Z" fill="white"/>
</svg>
