<svg width="15" height="15" viewBox="0 0 15 15" fill="none" xmlns="http://www.w3.org/2000/svg">
<path d="M7.5 0C3.38058 0 0 3.38058 0 7.5C0 8.85956 0.366554 10.1831 1.06167 11.341L0 15L3.65902 13.9383C4.81693 14.6334 6.14044 15 7.5 15C11.6194 15 15 11.6194 15 7.5C15 3.38058 11.6194 0 7.5 0ZM12.1891 10.669L11.8402 11.0179C11.3465 11.5116 10.2111 11.4725 9.48154 11.3316C7.05574 10.8631 4.22756 8.12176 3.68214 5.7478C3.41206 4.5718 3.56117 3.54939 3.95119 3.15926L4.30012 2.81033C4.49272 2.61784 4.8056 2.61806 4.99798 2.81033L6.39393 4.20639C6.48708 4.29955 6.53812 4.42303 6.53812 4.55521C6.53812 4.68739 6.48708 4.81098 6.39393 4.90379L6.04511 5.25307C5.66059 5.6385 5.66059 6.26461 6.04511 6.64913L8.3503 8.92399C8.73596 9.30965 9.36012 9.31011 9.74636 8.92399L10.0953 8.57517C10.2754 8.39401 10.6119 8.39344 10.7935 8.57517L12.1891 9.97078C12.3786 10.1595 12.3858 10.4721 12.1891 10.669Z" fill="white"/>
</svg>
