<svg width="47" height="47" viewBox="0 0 47 47" fill="none" xmlns="http://www.w3.org/2000/svg">
<circle cx="23" cy="24" r="17" fill="white"/>
<path d="M27.9182 28.53C27.0797 29.3891 26.3491 30.3143 24.0134 28.9445C21.7498 27.6169 17.9453 24.0543 17.3857 21.1111C17.3857 19.6174 18.6479 19.1392 19.0429 18.529C18.8211 18.0339 18.1114 16.7387 16.7801 14.2148C16.3693 14.6119 15.1805 15.8265 14.0015 17.0069C13.6143 17.3749 13.801 18.4774 13.9158 19.0009C15.0928 24.3687 21.2515 30.4964 25.9931 32.464C26.905 32.8427 29.3918 33.6758 30.0086 33.0272C31.4564 31.5891 32.3529 30.7374 32.8337 30.2345C30.9056 29.0942 28.6463 27.7589 28.6463 27.7589L27.9182 28.53Z" fill="black"/>
<path d="M40.117 6.88304C35.6786 2.44438 29.7769 0 23.5 0C17.2231 0 11.3214 2.44438 6.88304 6.88304C2.44438 11.3214 0 17.2231 0 23.5C0 29.7769 2.44438 35.6786 6.88304 40.117C11.3214 44.5556 17.2231 47 23.5 47C29.7769 47 35.6786 44.5556 40.117 40.117C44.5556 35.6786 47 29.7769 47 23.5C47 17.2231 44.5556 11.3214 40.117 6.88304ZM33.5873 33.3679C31.6926 35.2225 31.2565 36.0079 29.1725 36.0079C19.7621 36.0088 7.11082 19.6316 12.0747 15.0386C14.1855 12.9256 14.8697 12.1857 15.3725 11.7775C16.5091 10.8553 18.0846 11.0805 18.9687 12.4706C19.1009 12.6992 18.8468 12.2434 20.3757 15.1181C21.8545 17.8987 22.7714 18.9205 20.267 21.197C21.0507 23.0387 24.0777 25.9647 25.784 26.7734C26.4358 26.107 27.8778 24.115 30.2677 25.5172C34.5687 28.0405 35.4715 28.2961 35.7563 29.7198C35.9786 31.0689 35.4416 31.5535 33.5873 33.3679Z" fill="black"/>
</svg>
