<svg width="47" height="47" viewBox="0 0 47 47" fill="none" xmlns="http://www.w3.org/2000/svg">
<g clip-path="url(#clip0_226_621)">
<circle cx="23.5" cy="23.5" r="15.5" fill="white"/>
<path d="M28.268 21.1284C28.3764 21.1389 28.4846 21.1066 28.5695 21.0385C28.6544 20.9703 28.7093 20.8717 28.7225 20.7636C28.7431 20.6119 28.7545 20.459 28.7565 20.3059C28.7549 19.2117 28.3188 18.1628 27.5442 17.3899C26.7696 16.617 25.7198 16.1833 24.6255 16.1842C24.4726 16.1832 24.3198 16.1914 24.1679 16.2089C24.114 16.2148 24.0619 16.2312 24.0145 16.2572C23.967 16.2833 23.9252 16.3184 23.8913 16.3606C23.8574 16.4028 23.8322 16.4513 23.817 16.5032C23.8019 16.5552 23.7971 16.6096 23.803 16.6634C23.8089 16.7172 23.8253 16.7694 23.8513 16.8168C23.8774 16.8643 23.9125 16.9061 23.9547 16.94C23.9969 16.9739 24.0454 16.9991 24.0973 17.0143C24.1493 17.0294 24.2037 17.0342 24.2575 17.0283C24.3796 17.0133 24.5025 17.0061 24.6255 17.0067C25.5 17.0083 26.3382 17.3564 26.9566 17.9748C27.575 18.5932 27.9231 19.4314 27.9248 20.3059C27.9238 20.4289 27.9166 20.5517 27.9031 20.6739C27.8926 20.7823 27.9249 20.8905 27.9931 20.9754C28.0612 21.0603 28.1599 21.1152 28.268 21.1284Z" fill="black"/>
<path d="M24.6254 17.8321C24.5682 17.8272 24.5106 17.8341 24.4562 17.8526C24.4018 17.8711 24.3519 17.9007 24.3096 17.9395C24.2673 17.9784 24.2335 18.0255 24.2103 18.0781C24.1872 18.1307 24.1753 18.1875 24.1753 18.2449C24.1753 18.3023 24.1872 18.3591 24.2103 18.4117C24.2335 18.4643 24.2673 18.5115 24.3096 18.5503C24.3519 18.5891 24.4018 18.6187 24.4562 18.6372C24.5106 18.6557 24.5682 18.6627 24.6254 18.6577C24.8426 18.6565 25.0579 18.6982 25.2589 18.7805C25.46 18.8628 25.6428 18.984 25.7968 19.1371C25.9508 19.2903 26.073 19.4724 26.1564 19.673C26.2398 19.8735 26.2828 20.0886 26.2828 20.3058C26.2917 20.4091 26.3391 20.5053 26.4155 20.5754C26.4919 20.6455 26.5919 20.6844 26.6956 20.6844C26.7993 20.6844 26.8992 20.6455 26.9756 20.5754C27.052 20.5053 27.0994 20.4091 27.1084 20.3058C27.1084 19.9802 27.0441 19.6577 26.9192 19.357C26.7943 19.0563 26.6112 18.7832 26.3806 18.5534C26.1499 18.3235 25.8761 18.1415 25.5749 18.0177C25.2737 17.894 24.951 17.8309 24.6254 17.8321Z" fill="black"/>
<path d="M27.4302 23.7568C27.2873 23.6056 27.1079 23.4937 26.9092 23.4319C26.7105 23.3701 26.4993 23.3605 26.2958 23.404C26.0924 23.4475 25.9035 23.5426 25.7475 23.6802C25.5914 23.8178 25.4734 23.9933 25.4048 24.1897C25.2987 24.4714 25.0934 24.7046 24.8276 24.8458C24.5618 24.9869 24.2536 25.0263 23.9608 24.9566C22.6621 24.6164 20.9213 22.9003 20.609 21.5274C20.5318 21.2324 20.5718 20.9189 20.7204 20.6527C20.8691 20.3864 21.1151 20.188 21.4067 20.0989C21.6043 20.0342 21.782 19.9199 21.9228 19.7669C22.0636 19.6139 22.1628 19.4273 22.2109 19.2251C22.259 19.0228 22.2544 18.8115 22.1975 18.6116C22.1406 18.4116 22.0334 18.2295 21.886 18.0828L20.0802 16.2276C19.8425 16.0049 19.5299 15.8795 19.2041 15.876C18.8784 15.8726 18.5632 15.9914 18.3208 16.209L17.084 17.4459C15.8317 18.7353 17.1613 22.2046 20.1761 25.3029C23.1909 28.4012 26.6448 29.8699 27.962 28.5805L29.1989 27.3437C29.4222 27.1063 29.5481 26.7935 29.5515 26.4676C29.5549 26.1417 29.4357 25.8264 29.2174 25.5843L27.4302 23.7568Z" fill="black"/>
<path d="M23.5 0C18.8521 0 14.3087 1.37825 10.4441 3.96046C6.57956 6.54268 3.5675 10.2129 1.78884 14.5069C0.0101821 18.801 -0.455196 23.5261 0.451557 28.0846C1.35831 32.6432 3.59647 36.8305 6.883 40.117C10.1695 43.4035 14.3568 45.6417 18.9154 46.5485C23.4739 47.4552 28.199 46.9898 32.4931 45.2112C36.7871 43.4325 40.4573 40.4205 43.0395 36.5559C45.6218 32.6913 47 28.1479 47 23.5C47 17.2674 44.5241 11.2901 40.117 6.88299C35.7099 2.47589 29.7326 0 23.5 0V0ZM34.6316 23.5C34.6316 25.7962 33.7194 27.9984 32.0957 29.6221C30.4721 31.2457 28.2699 32.1579 25.9737 32.1579H21.6107L18.0177 35.7509C17.9596 35.8069 17.8865 35.8448 17.8072 35.8598C17.728 35.8748 17.6461 35.8664 17.5716 35.8355C17.497 35.8046 17.4331 35.7527 17.3877 35.686C17.3423 35.6194 17.3173 35.5409 17.3158 35.4603V31.3261C15.8349 30.6237 14.5839 29.5153 13.7081 28.1299C12.8323 26.7445 12.3677 25.139 12.3684 23.5V19.7895C12.3684 17.4933 13.2806 15.2911 14.9043 13.6674C16.5279 12.0437 18.7301 11.1316 21.0263 11.1316H25.9737C28.2699 11.1316 30.4721 12.0437 32.0957 13.6674C33.7194 15.2911 34.6316 17.4933 34.6316 19.7895V23.5Z" fill="black"/>
<path d="M24.6256 14.5327C24.4772 14.5327 24.3287 14.5389 24.1803 14.5513C24.0712 14.5595 23.9699 14.6107 23.8986 14.6936C23.8273 14.7765 23.7918 14.8844 23.8 14.9934C23.8082 15.1025 23.8594 15.2039 23.9423 15.2752C24.0252 15.3465 24.1331 15.382 24.2422 15.3738H24.6256C25.9377 15.3738 27.1961 15.895 28.1239 16.8228C29.0517 17.7506 29.573 19.009 29.573 20.3211C29.5739 20.7054 29.5293 21.0884 29.44 21.4621C29.4228 21.5164 29.417 21.5737 29.4229 21.6303C29.4288 21.687 29.4463 21.7418 29.4744 21.7913C29.5024 21.8409 29.5404 21.8842 29.5859 21.9184C29.6314 21.9526 29.6835 21.9771 29.7389 21.9903C29.7943 22.0035 29.8518 22.0052 29.9079 21.9952C29.9639 21.9852 30.0173 21.9637 30.0647 21.9321C30.1121 21.9005 30.1525 21.8595 30.1833 21.8116C30.2142 21.7638 30.2348 21.71 30.2439 21.6538C30.3464 21.217 30.3982 20.7698 30.3986 20.3211C30.4002 18.7881 29.793 17.3172 28.7104 16.2318C27.6279 15.1463 26.1586 14.5352 24.6256 14.5327Z" fill="black"/>
</g>
<defs>
<clipPath id="clip0_226_621">
<rect width="47" height="47" fill="white"/>
</clipPath>
</defs>
</svg>
