<svg width="47" height="47" viewBox="0 0 47 47" fill="none" xmlns="http://www.w3.org/2000/svg">
<g clip-path="url(#clip0_225_609)">
<circle cx="24" cy="25" r="17" fill="white"/>
<path d="M28.1383 24.8108C27.9844 24.6488 27.7911 24.5295 27.5773 24.4645C27.3635 24.3995 27.1365 24.391 26.9184 24.4399C26.7004 24.4888 26.4987 24.5934 26.3332 24.7435C26.1676 24.8936 26.0438 25.084 25.9738 25.2963C25.8632 25.5958 25.6479 25.8451 25.3676 25.998C25.0873 26.151 24.7611 26.1971 24.4494 26.128C23.061 25.7817 21.1903 23.9636 20.844 22.5257C20.7594 22.213 20.7986 21.8797 20.9536 21.5952C21.1085 21.3107 21.3672 21.0968 21.6758 20.9982C21.8841 20.9281 22.0711 20.806 22.2189 20.6433C22.3668 20.4806 22.4705 20.2828 22.5204 20.0687C22.5703 19.8546 22.5646 19.6313 22.5039 19.4201C22.4432 19.2088 22.3295 19.0166 22.1736 18.8616L20.2318 16.9198C19.9767 16.6853 19.6429 16.5552 19.2964 16.5552C18.9499 16.5552 18.6161 16.6853 18.361 16.9198L17.0438 18.2432C15.7266 19.6284 17.183 23.3019 20.4451 26.5609C23.7073 29.82 27.3745 31.3413 28.7598 29.9622L30.077 28.645C30.3071 28.3908 30.4345 28.0602 30.4345 27.7174C30.4345 27.3745 30.3071 27.0439 30.077 26.7897L28.1383 24.8108Z" fill="black"/>
<path d="M23.5 0C18.8521 0 14.3087 1.37825 10.4441 3.96046C6.57956 6.54268 3.5675 10.2129 1.78884 14.5069C0.0101821 18.801 -0.455196 23.5261 0.451557 28.0846C1.35831 32.6432 3.59647 36.8305 6.883 40.117C10.1695 43.4035 14.3568 45.6417 18.9154 46.5485C23.4739 47.4552 28.199 46.9898 32.4931 45.2112C36.7871 43.4325 40.4573 40.4205 43.0395 36.5559C45.6218 32.6913 47 28.1479 47 23.5C47 17.2674 44.5241 11.2901 40.117 6.88299C35.7099 2.47589 29.7326 0 23.5 0V0ZM23.5 35.8684C21.0805 35.8729 18.7137 35.1618 16.6974 33.8245L11.9448 35.3459L13.4909 30.751C12.1553 28.9054 11.3555 26.7269 11.1794 24.4556C11.0034 22.1843 11.4581 19.9085 12.4934 17.8793C13.5287 15.85 15.1043 14.146 17.0465 12.9554C18.9886 11.7647 21.2219 11.1336 23.5 11.1316C26.7803 11.1316 29.9263 12.4347 32.2458 14.7542C34.5653 17.0737 35.8684 20.2197 35.8684 23.5C35.8684 26.7803 34.5653 29.9263 32.2458 32.2458C29.9263 34.5653 26.7803 35.8684 23.5 35.8684Z" fill="black"/>
</g>
<defs>
<clipPath id="clip0_225_609">
<rect width="47" height="47" fill="white"/>
</clipPath>
</defs>
</svg>
